<?xml version="1.0" standalone="no"?>
<!DOCTYPE svg PUBLIC "-//W3C//DTD SVG 20010904//EN"
 "http://www.w3.org/TR/2001/REC-SVG-20010904/DTD/svg10.dtd">
<svg version="1.0" xmlns="http://www.w3.org/2000/svg"
 width="2581.000000pt" height="2581.000000pt" viewBox="0 0 2581.000000 2581.000000"
 preserveAspectRatio="xMidYMid meet">
<metadata>
Created by potrace 1.14, written by Peter Selinger 2001-2017
</metadata>
<g transform="translate(0.000000,2581.000000) scale(0.100000,-0.100000)"
fill="#000000" stroke="none">
<path d="M12898 23795 c-1 -2 -37 -6 -78 -10 -41 -4 -82 -9 -90 -10 -8 -2 -49
-11 -90 -20 -41 -9 -83 -18 -93 -20 -10 -2 -27 -7 -37 -10 -10 -3 -27 -8 -37
-10 -44 -9 -395 -132 -458 -161 -16 -7 -64 -26 -105 -43 -114 -45 -265 -117
-364 -173 l-89 -51 -61 31 c-33 17 -88 47 -121 66 -33 19 -73 42 -90 51 -16 8
-66 38 -110 65 -44 27 -86 50 -94 50 -8 0 -46 -15 -85 -34 -39 -19 -96 -45
-126 -59 -118 -53 -236 -110 -247 -119 -18 -15 8 -60 54 -95 150 -111 273
-216 272 -231 -2 -42 -19 -64 -84 -113 -38 -29 -75 -59 -82 -68 -28 -38 22
-258 98 -426 12 -27 23 -52 24 -55 4 -18 46 -88 58 -98 7 -6 52 -14 98 -17
107 -7 129 -12 157 -34 l24 -17 -17 -60 c-23 -81 -72 -224 -107 -313 -31 -78
-28 -94 14 -93 23 0 424 77 463 88 40 12 69 52 134 184 78 159 131 276 131
289 0 12 17 17 97 31 35 5 73 12 85 15 13 2 37 7 53 10 17 3 50 10 75 15 46
11 73 16 124 26 16 2 32 7 36 9 4 2 21 7 39 10 75 13 332 80 381 99 19 8 37
14 40 13 27 -1 287 96 365 137 17 9 33 16 37 16 4 0 42 20 84 45 41 25 78 45
80 45 10 0 204 138 269 190 72 59 224 205 286 275 83 95 175 239 211 332 19
51 20 51 -87 93 -160 63 -354 116 -500 135 -22 3 -67 9 -100 14 -56 8 -429 13
-437 6z"/>
<path d="M10440 22826 c-107 -33 -145 -51 -235 -112 -93 -62 -122 -88 -191
-169 -69 -83 -100 -130 -134 -211 -37 -86 -37 -97 -2 -112 15 -6 60 -29 101
-51 71 -38 182 -78 246 -88 17 -3 50 -9 75 -13 47 -10 276 -7 320 4 14 3 39 8
55 12 100 19 110 32 74 90 -18 30 -24 33 -52 28 -167 -29 -297 1 -460 108 -32
21 -62 38 -67 38 -29 0 81 168 163 251 34 34 98 86 142 114 79 51 81 54 80 91
0 49 -14 51 -115 20z"/>
<path d="M8885 21984 c-112 -31 -121 -33 -142 -38 -10 -2 -54 -14 -98 -26 -44
-12 -98 -26 -120 -31 -22 -6 -60 -17 -85 -25 -25 -9 -52 -17 -60 -19 -51 -10
-456 -151 -535 -185 -11 -5 -51 -21 -90 -36 -38 -15 -89 -35 -112 -45 -23 -11
-46 -19 -50 -19 -4 -1 -26 -9 -48 -20 -22 -11 -44 -19 -48 -20 -5 0 -34 -12
-65 -27 -31 -15 -59 -27 -62 -27 -28 -5 -528 -257 -705 -356 -154 -86 -353
-204 -508 -301 -231 -146 -709 -494 -918 -669 -79 -66 -273 -233 -279 -240 -3
-3 -48 -43 -100 -89 -199 -175 -572 -556 -775 -791 -26 -30 -69 -80 -96 -110
-261 -297 -524 -657 -844 -1155 -41 -63 -183 -304 -220 -370 -15 -27 -31 -54
-35 -60 -21 -28 -201 -380 -272 -531 -51 -109 -119 -258 -120 -264 -1 -3 -10
-25 -20 -50 -11 -25 -23 -54 -28 -65 -4 -11 -15 -36 -23 -55 -8 -19 -32 -78
-52 -130 -20 -52 -41 -106 -47 -120 -19 -46 -128 -344 -133 -365 -1 -5 -5 -17
-8 -25 -13 -33 -69 -203 -73 -223 -6 -27 -9 -38 -17 -57 -3 -8 -9 -28 -13 -45
-4 -16 -8 -34 -10 -40 -2 -5 -8 -26 -13 -45 -5 -19 -17 -62 -26 -95 -9 -33
-18 -67 -20 -75 -1 -8 -8 -35 -15 -60 -7 -25 -14 -56 -17 -69 -2 -14 -6 -28
-8 -31 -2 -4 -7 -21 -10 -38 -3 -17 -14 -70 -26 -119 -12 -48 -23 -97 -25
-108 -4 -19 -6 -29 -19 -87 -3 -13 -7 -34 -10 -48 -7 -36 -23 -121 -30 -150
-3 -14 -7 -38 -10 -55 -3 -16 -8 -43 -12 -60 -3 -16 -7 -39 -9 -50 -9 -63 -14
-93 -19 -115 -2 -13 -7 -42 -10 -65 -4 -22 -8 -51 -10 -65 -15 -94 -34 -253
-50 -425 -3 -38 -8 -88 -11 -110 -4 -39 -13 -162 -19 -260 -26 -401 -26 -1036
0 -1345 2 -25 6 -81 10 -125 3 -44 8 -93 9 -110 2 -16 7 -66 10 -110 4 -44 9
-91 11 -105 4 -27 16 -118 20 -160 3 -22 13 -102 19 -155 8 -57 19 -132 22
-150 2 -11 6 -37 9 -59 6 -49 20 -127 30 -176 3 -14 8 -43 10 -64 3 -21 7 -42
10 -46 2 -3 7 -29 11 -56 3 -27 8 -52 11 -56 2 -5 6 -18 8 -30 3 -13 10 -47
16 -75 5 -29 10 -55 10 -58 0 -2 6 -23 14 -45 8 -22 14 -43 14 -45 -1 -10 23
-120 36 -170 50 -187 107 -395 115 -420 35 -108 42 -133 46 -154 3 -14 8 -29
12 -35 3 -6 7 -15 8 -21 4 -19 77 -240 83 -250 3 -5 6 -12 7 -15 4 -25 20 -68
30 -89 8 -14 14 -33 14 -42 0 -9 3 -19 8 -23 4 -4 7 -11 8 -14 1 -8 12 -39 25
-67 4 -11 18 -45 30 -75 11 -30 26 -68 34 -85 7 -16 40 -96 74 -177 162 -390
395 -843 654 -1268 70 -116 301 -459 359 -535 4 -5 56 -75 114 -155 300 -407
530 -673 929 -1074 223 -224 336 -329 630 -585 242 -211 792 -607 1170 -843
304 -189 748 -423 1120 -588 39 -17 79 -35 90 -40 84 -38 156 -69 160 -69 3 0
26 -9 51 -21 26 -11 48 -20 50 -20 6 0 117 -50 144 -65 14 -7 30 -14 35 -16
10 -2 73 -29 130 -54 67 -30 285 -114 360 -139 44 -15 87 -30 95 -33 20 -8 20
-8 55 -18 17 -4 35 -11 40 -16 6 -4 22 -10 37 -13 14 -2 37 -10 50 -17 12 -7
25 -12 28 -12 6 1 10 -1 65 -18 22 -7 43 -14 48 -15 4 -1 9 -3 12 -4 3 -1 8
-3 13 -4 11 -3 125 -38 142 -44 8 -3 20 -6 25 -7 6 -2 46 -13 90 -25 44 -12
88 -24 98 -26 36 -9 54 -13 114 -29 35 -9 72 -18 84 -20 11 -2 28 -6 37 -9 9
-3 31 -8 47 -11 17 -2 40 -7 53 -10 12 -3 32 -7 45 -10 12 -3 33 -7 47 -10 14
-3 36 -7 50 -10 14 -3 36 -7 50 -10 14 -3 36 -7 50 -10 135 -28 136 -28 147
10 l11 34 -52 17 c-28 9 -127 48 -221 86 -93 38 -175 70 -182 70 -7 1 -11 6
-10 11 2 10 -31 24 -225 97 -42 16 -183 81 -313 144 -130 64 -239 116 -241
116 -2 0 -21 11 -42 23 -20 13 -75 43 -122 68 -130 67 -464 259 -580 334 -19
12 -59 37 -89 56 -30 19 -111 71 -179 116 -68 46 -128 83 -133 83 -5 0 -9 4
-9 9 0 5 -21 21 -46 36 -26 15 -54 33 -63 40 -9 8 -88 66 -176 131 -273 199
-640 495 -780 629 -12 11 -37 33 -56 49 -97 80 -505 481 -669 656 -91 98 -204
226 -340 386 -117 138 -223 270 -323 404 -31 41 -61 80 -66 86 -19 23 -227
320 -272 389 -25 39 -76 116 -113 172 -36 56 -66 107 -66 112 0 6 -3 11 -8 11
-4 0 -16 17 -27 37 -11 21 -22 40 -25 43 -6 5 -132 218 -168 281 -42 76 -47
84 -53 89 -3 3 -11 20 -19 38 -7 19 -18 39 -24 45 -11 12 -43 76 -206 412 -87
179 -121 251 -126 270 -1 6 -15 37 -30 70 -15 33 -29 65 -30 70 -2 6 -28 73
-60 150 -73 181 -69 170 -94 240 -12 33 -28 76 -35 95 -32 83 -65 180 -85 245
-27 87 -27 89 -28 95 0 3 -6 19 -12 35 -7 17 -13 37 -15 45 -3 8 -11 40 -20
70 -27 91 -32 109 -74 265 -52 193 -117 458 -137 560 -4 22 -9 47 -11 55 -2 8
-6 26 -8 40 -2 14 -7 36 -10 50 -6 28 -42 228 -49 275 -3 17 -7 48 -11 70 -3
23 -7 51 -9 62 -3 12 -7 48 -11 80 -3 32 -8 65 -10 73 -2 8 -6 42 -10 75 -3
33 -9 78 -12 100 -7 59 -11 93 -18 165 -3 36 -8 81 -10 100 -2 19 -6 73 -10
120 -4 47 -8 101 -10 120 -26 278 -26 973 0 1350 8 117 17 238 20 270 2 19 6
67 10 105 11 117 17 176 30 265 7 49 16 110 20 137 2 15 6 42 9 58 2 17 7 48
11 70 3 23 7 50 9 62 4 18 9 48 22 118 1 11 5 34 8 52 2 18 7 40 10 50 3 10 7
34 10 53 3 19 8 46 11 60 3 14 8 39 11 55 3 17 10 50 15 75 6 25 12 52 14 60
2 8 8 35 14 60 5 25 13 60 16 79 3 19 8 37 10 41 2 4 7 20 10 37 2 17 17 74
31 128 14 53 27 106 30 118 2 12 13 52 25 90 11 37 22 73 23 80 2 7 9 32 16
57 8 25 14 47 15 50 1 3 14 46 30 95 16 50 30 95 31 100 2 6 14 40 28 78 14
37 26 71 27 75 9 37 163 450 189 507 5 11 21 49 35 85 14 36 30 74 35 85 62
144 80 185 123 275 134 284 321 631 492 915 137 227 158 260 238 380 400 599
825 1112 1347 1631 186 184 190 188 345 330 210 192 668 571 760 630 17 10 36
24 43 31 38 36 433 313 583 408 9 6 27 17 40 26 110 75 482 298 625 374 49 26
94 52 99 56 17 13 531 270 615 308 106 48 205 93 208 96 1 1 -1 16 -4 34 -6
28 -10 31 -33 27 -57 -11 -82 -17 -106 -26 -14 -5 -25 -7 -25 -5 0 2 -11 0
-25 -5 -14 -5 -36 -12 -49 -14 -13 -2 -58 -14 -100 -26 -43 -12 -85 -23 -94
-25 -9 -2 -42 -11 -72 -20 -30 -9 -59 -17 -65 -19 -24 -5 -132 -39 -157 -48
-15 -6 -29 -10 -32 -10 -3 0 -29 -8 -58 -19 -29 -11 -62 -22 -73 -24 -11 -3
-42 -13 -70 -24 -27 -10 -106 -40 -175 -67 -69 -26 -129 -50 -135 -54 -5 -4
-28 -13 -50 -20 -22 -7 -58 -21 -80 -30 -22 -10 -70 -29 -106 -43 -81 -31
-249 -110 -426 -198 -73 -37 -133 -65 -133 -64 0 13 522 327 720 433 47 25 87
48 90 52 6 7 568 286 645 320 28 12 76 33 107 48 l57 27 -14 33 c-8 17 -18 32
-22 31 -4 -1 -48 -12 -98 -25z"/>
<path d="M13567 21224 c-1 -1 -76 -5 -167 -8 -91 -4 -190 -9 -220 -11 -67 -4
-202 -15 -250 -20 -147 -15 -221 -23 -269 -30 -20 -3 -56 -7 -81 -10 -25 -3
-56 -7 -70 -10 -14 -3 -43 -7 -65 -10 -22 -4 -49 -8 -60 -10 -11 -2 -38 -6
-60 -9 -22 -3 -51 -8 -65 -11 -14 -3 -41 -8 -60 -11 -19 -3 -42 -7 -50 -9 -8
-2 -28 -7 -45 -10 -16 -2 -41 -7 -55 -10 -14 -3 -47 -10 -75 -16 -27 -6 -59
-12 -70 -15 -11 -2 -29 -6 -40 -8 -11 -2 -51 -12 -90 -21 -38 -9 -79 -19 -90
-21 -11 -3 -29 -7 -40 -9 -11 -3 -69 -19 -130 -35 -60 -17 -121 -33 -134 -36
-13 -3 -39 -11 -57 -19 -19 -8 -34 -12 -34 -10 0 2 -16 -3 -35 -11 -19 -8 -35
-11 -35 -8 0 4 -7 1 -15 -6 -8 -7 -15 -10 -15 -6 0 3 -17 -1 -37 -10 -21 -8
-46 -17 -56 -19 -17 -4 -157 -50 -187 -62 -8 -3 -19 -7 -25 -9 -45 -13 -192
-68 -199 -75 -6 -5 -16 -9 -23 -9 -7 0 -36 -11 -65 -24 -29 -13 -64 -27 -78
-31 -14 -4 -43 -16 -65 -26 -22 -9 -78 -34 -125 -54 -47 -20 -101 -44 -120
-52 -62 -27 -513 -252 -577 -287 -115 -63 -248 -140 -253 -146 -3 -3 -16 -11
-30 -18 -14 -6 -34 -18 -45 -24 -11 -7 -42 -27 -70 -44 -27 -17 -131 -84 -230
-150 -99 -65 -184 -121 -190 -123 -5 -2 -16 -11 -24 -18 -7 -8 -26 -22 -40
-31 -23 -15 -241 -177 -281 -208 -8 -7 -67 -54 -130 -105 -93 -75 -274 -227
-326 -274 -173 -158 -513 -493 -598 -590 -15 -16 -42 -46 -60 -65 -70 -76
-228 -261 -327 -385 -102 -128 -119 -150 -179 -230 -16 -22 -33 -44 -38 -50
-4 -5 -28 -39 -52 -75 -25 -36 -50 -69 -56 -75 -38 -34 -391 -595 -475 -754
-19 -36 -38 -69 -42 -75 -27 -36 -327 -643 -327 -662 0 -2 -12 -29 -27 -61
-15 -32 -28 -62 -30 -68 -1 -5 -34 -89 -73 -185 -63 -155 -241 -670 -256 -739
-6 -31 -6 -30 -28 -102 -9 -31 -19 -66 -21 -78 -2 -13 -7 -31 -10 -41 -3 -10
-8 -27 -10 -37 -3 -10 -11 -41 -19 -70 -8 -29 -17 -67 -20 -86 -3 -19 -10 -46
-15 -61 -6 -14 -8 -26 -6 -26 2 0 1 -10 -4 -23 -5 -13 -12 -41 -15 -63 -4 -21
-11 -55 -16 -74 -9 -35 -15 -66 -26 -129 -3 -18 -8 -43 -10 -55 -3 -11 -7 -34
-9 -51 -3 -16 -7 -41 -10 -55 -3 -14 -7 -41 -10 -60 -3 -19 -7 -46 -10 -60 -5
-25 -12 -70 -19 -130 -3 -19 -8 -53 -11 -75 -10 -68 -14 -98 -20 -160 -3 -33
-8 -76 -10 -96 -3 -20 -7 -67 -10 -105 -4 -38 -8 -85 -10 -104 -27 -257 -27
-1122 0 -1380 2 -19 7 -66 10 -105 6 -75 12 -131 21 -210 4 -27 8 -61 9 -75 2
-14 5 -44 9 -67 3 -24 9 -62 12 -85 7 -54 17 -120 30 -190 3 -18 7 -42 9 -53
8 -62 17 -110 20 -115 2 -3 6 -30 10 -60 4 -30 11 -63 16 -72 5 -10 8 -18 5
-18 -2 0 1 -19 6 -42 5 -24 11 -52 14 -63 8 -40 60 -265 70 -300 1 -5 10 -37
19 -70 9 -33 18 -67 20 -75 2 -8 11 -40 20 -70 9 -30 17 -62 19 -70 12 -48
165 -511 187 -565 7 -16 13 -32 13 -35 1 -3 7 -18 13 -35 24 -58 36 -90 39
-100 4 -14 73 -183 83 -203 5 -9 23 -48 39 -87 62 -144 76 -174 168 -360 97
-196 166 -329 184 -355 5 -8 24 -42 41 -75 17 -33 34 -62 38 -65 3 -3 14 -21
25 -40 38 -72 69 -125 75 -130 3 -3 15 -21 25 -40 24 -44 301 -464 318 -482 8
-7 22 -26 32 -43 11 -16 23 -34 28 -40 4 -5 56 -73 114 -150 155 -203 373
-465 509 -610 261 -280 703 -696 879 -830 22 -17 51 -41 65 -54 26 -23 396
-302 440 -331 13 -8 49 -34 82 -58 32 -23 63 -42 69 -42 5 0 10 -4 10 -10 0
-5 16 -16 35 -25 19 -9 39 -23 46 -31 6 -8 15 -14 20 -14 5 0 31 -16 58 -35
26 -19 53 -35 59 -35 6 0 12 -4 14 -8 4 -10 225 -143 391 -235 127 -71 534
-276 632 -319 33 -14 78 -34 100 -44 47 -20 121 -52 150 -64 11 -4 36 -15 57
-24 20 -9 39 -16 43 -16 4 0 23 -7 43 -16 63 -27 74 -32 177 -70 147 -53 482
-164 545 -179 3 0 32 -9 65 -19 33 -10 67 -19 75 -21 8 -2 40 -10 71 -19 31
-9 66 -19 78 -21 13 -2 31 -7 41 -10 10 -3 28 -8 39 -10 12 -3 29 -7 39 -9 52
-13 291 -66 317 -71 34 -5 68 -12 105 -20 49 -11 76 -15 114 -20 21 -3 41 -7
45 -9 3 -2 30 -7 60 -11 30 -4 63 -9 75 -11 11 -2 37 -6 58 -9 21 -3 56 -7 77
-10 21 -3 61 -8 87 -11 27 -2 60 -7 74 -9 14 -2 50 -7 80 -10 30 -3 75 -7 100
-10 40 -4 91 -9 240 -20 301 -24 878 -24 1195 -1 213 16 430 37 515 51 14 2
50 7 80 10 30 4 64 9 75 11 10 2 37 6 60 9 39 6 70 11 130 21 17 3 42 7 58 9
40 7 79 14 107 20 14 3 50 10 80 16 30 5 64 12 75 15 11 2 30 6 43 8 13 3 31
7 40 10 9 3 28 7 42 10 14 2 81 18 150 35 145 36 132 33 235 60 44 12 89 24
100 26 11 3 31 9 45 14 23 9 163 51 185 57 19 4 280 92 305 102 34 14 63 25
75 27 13 3 356 140 398 159 18 8 52 23 77 34 115 49 192 85 415 197 237 120
547 291 553 307 2 4 8 8 13 8 18 0 327 199 529 340 94 66 319 236 431 326 301
241 606 524 909 844 89 94 342 384 369 424 8 12 18 23 22 26 3 3 56 70 118
150 61 80 115 150 119 155 99 122 532 782 532 810 0 2 19 35 42 72 51 84 293
557 343 673 21 47 45 103 55 125 61 137 197 478 206 515 0 3 6 18 12 33 7 15
15 40 18 55 4 15 10 32 14 37 4 6 14 33 23 60 8 28 29 95 47 150 17 55 33 109
36 120 2 11 8 31 13 45 9 23 77 269 88 315 2 11 5 25 7 30 5 19 40 171 51 220
2 11 11 52 19 90 8 39 17 84 20 100 3 17 8 41 11 55 3 14 8 41 11 60 2 19 6
42 9 50 2 8 7 31 10 50 3 19 8 49 11 65 3 17 7 46 9 65 3 19 6 44 9 56 2 12 7
45 11 75 3 30 8 65 10 79 6 36 15 107 21 170 3 30 7 69 9 85 2 17 6 64 10 105
3 41 8 95 10 120 26 291 26 1046 0 1300 -2 19 -6 73 -10 120 -3 47 -8 96 -10
110 -3 14 -7 50 -9 80 -7 70 -21 183 -30 235 -3 17 -7 50 -10 75 -3 25 -8 56
-10 70 -3 14 -7 41 -10 60 -3 19 -7 44 -10 55 -2 11 -7 40 -11 65 -4 25 -9 54
-11 65 -2 11 -6 31 -9 45 -16 86 -48 241 -57 275 -5 22 -12 49 -14 60 -33 170
-167 635 -250 865 -19 52 -36 102 -38 110 -4 16 -59 161 -81 215 -7 17 -25 62
-40 100 -16 39 -41 98 -57 133 -15 34 -28 64 -28 67 0 27 -385 794 -409 815
-3 3 -13 19 -21 35 -36 74 -168 286 -322 515 -108 162 -327 463 -411 563 -19
23 -70 85 -113 137 -163 199 -390 446 -593 644 -192 186 -208 202 -265 249
-28 23 -60 52 -71 63 -84 89 -539 448 -740 585 -44 30 -82 56 -85 60 -11 12
-102 69 -110 69 -4 0 -10 4 -12 8 -9 23 -355 232 -693 420 -163 90 -741 363
-800 377 -5 1 -23 8 -40 15 -16 7 -35 14 -41 15 -6 2 -27 10 -45 18 -33 16
-164 66 -184 71 -5 2 -17 6 -25 9 -18 7 -160 56 -245 85 -66 22 -228 72 -247
76 -7 2 -20 6 -28 9 -30 12 -367 100 -426 111 -11 2 -37 9 -59 15 -22 5 -53
13 -70 15 -48 9 -75 15 -93 20 -9 3 -30 8 -47 11 -16 2 -40 7 -51 9 -12 2 -37
7 -55 10 -19 3 -45 8 -59 11 -29 6 -73 14 -115 21 -16 2 -41 6 -55 9 -14 2
-43 7 -65 10 -23 3 -51 7 -62 9 -12 3 -48 7 -80 11 -32 3 -69 8 -83 10 -14 2
-50 7 -80 10 -30 3 -66 7 -80 10 -23 3 -70 8 -215 20 -204 18 -416 27 -683 29
-128 1 -233 1 -235 0z m-1189 -518 c-15 -8 -33 -19 -40 -25 -7 -6 -56 -41
-108 -78 -384 -270 -808 -669 -1161 -1093 -266 -319 -597 -800 -794 -1155 -15
-27 -42 -75 -58 -105 -69 -124 -132 -244 -208 -400 -77 -156 -99 -203 -147
-310 -40 -90 -62 -141 -82 -185 -12 -25 -38 -89 -59 -143 -22 -53 -55 -136
-74 -184 -19 -49 -33 -88 -31 -88 2 0 -5 -19 -17 -42 -12 -24 -22 -45 -22 -48
0 -3 -3 -15 -8 -28 -5 -13 -9 -28 -9 -33 0 -5 -4 -17 -10 -27 -9 -17 -78 -213
-85 -242 -2 -8 -18 -58 -35 -110 -18 -52 -34 -102 -35 -110 -2 -8 -8 -28 -14
-45 -12 -38 -62 -205 -67 -225 -2 -8 -15 -58 -30 -110 -14 -52 -30 -111 -34
-130 -4 -19 -19 -78 -33 -130 -20 -78 -36 -148 -53 -225 -1 -5 -7 -28 -12 -50
-6 -22 -14 -56 -17 -75 -3 -19 -10 -51 -15 -70 -5 -19 -11 -48 -14 -65 -3 -16
-7 -41 -10 -55 -3 -14 -7 -37 -10 -53 -3 -15 -7 -35 -10 -45 -3 -9 -7 -33 -10
-52 -3 -19 -8 -46 -11 -60 -2 -13 -7 -40 -10 -60 -3 -20 -8 -47 -10 -60 -12
-61 -26 -141 -30 -180 -3 -19 -7 -46 -10 -60 -6 -28 -17 -108 -30 -210 -5 -43
-16 -124 -20 -150 -3 -14 -7 -54 -11 -90 -3 -36 -7 -76 -9 -90 -2 -14 -6 -54
-9 -90 -4 -36 -8 -85 -11 -110 -9 -93 -15 -161 -30 -400 -28 -430 -24 -1153
10 -1605 3 -49 8 -110 10 -135 4 -58 18 -211 29 -315 3 -27 8 -75 11 -105 3
-30 8 -66 10 -80 2 -14 7 -47 10 -75 3 -27 7 -61 10 -75 2 -14 9 -61 15 -105
6 -44 13 -92 16 -106 2 -15 6 -44 9 -65 3 -22 7 -50 10 -64 2 -13 7 -40 10
-60 5 -35 10 -59 20 -110 5 -28 13 -69 21 -119 3 -18 8 -43 10 -55 3 -11 7
-32 10 -46 2 -14 9 -45 14 -70 5 -25 12 -56 14 -70 2 -14 9 -45 15 -70 5 -25
12 -56 15 -70 10 -52 16 -78 42 -185 14 -60 27 -117 29 -125 2 -8 15 -60 30
-115 14 -55 28 -107 30 -115 15 -61 48 -179 56 -200 5 -14 11 -34 13 -46 2
-12 14 -54 26 -95 12 -41 22 -75 21 -77 -1 -1 6 -16 14 -32 9 -17 13 -30 11
-30 -3 0 18 -66 46 -147 27 -82 52 -155 54 -163 5 -22 33 -102 44 -125 5 -11
16 -40 24 -65 8 -25 25 -70 36 -100 12 -30 30 -77 40 -105 20 -55 111 -277
140 -340 10 -22 25 -56 33 -76 8 -20 28 -65 43 -100 39 -86 286 -580 325 -649
17 -30 42 -75 56 -100 14 -25 37 -65 51 -90 148 -263 400 -637 601 -895 76
-97 245 -302 260 -315 4 -3 36 -39 73 -80 64 -72 346 -355 418 -418 19 -17 42
-38 50 -45 58 -53 232 -193 334 -269 66 -49 129 -96 139 -104 9 -8 19 -14 21
-14 2 0 44 -26 93 -58 119 -77 201 -126 308 -184 86 -47 273 -138 284 -138 5
0 13 -5 16 -10 6 -10 -32 -9 -145 6 -19 2 -55 6 -80 9 -25 3 -56 8 -70 10 -14
3 -43 7 -65 10 -22 3 -51 7 -65 10 -14 3 -41 7 -60 10 -19 3 -46 7 -60 10 -14
3 -41 7 -60 10 -40 5 -74 12 -98 19 -9 3 -33 7 -52 10 -35 6 -68 12 -105 21
-23 5 -98 22 -135 29 -14 3 -37 8 -52 12 -15 3 -29 5 -30 4 -2 -1 -15 3 -31 9
-15 6 -38 13 -50 15 -33 7 -58 14 -94 25 -18 5 -33 7 -33 5 0 -3 -6 -2 -12 3
-7 4 -19 9 -25 10 -51 12 -364 106 -418 126 -16 7 -32 12 -35 13 -3 0 -12 3
-20 6 -27 11 -195 69 -205 72 -5 2 -23 8 -40 15 -16 6 -55 21 -85 33 -209 80
-515 217 -725 324 -132 67 -181 93 -315 167 -103 56 -405 240 -408 249 -2 4
-8 8 -14 8 -13 0 -311 203 -448 305 -367 273 -613 487 -945 819 -263 263 -453
479 -685 776 -111 142 -277 372 -315 437 -11 18 -23 33 -27 33 -4 0 -8 4 -8 9
0 5 -18 36 -39 69 -46 69 -221 352 -221 358 0 1 -14 27 -32 56 -63 106 -100
177 -201 378 -100 200 -142 288 -207 440 -18 41 -41 94 -51 117 -11 23 -19 44
-19 47 0 2 -4 15 -9 28 -5 13 -10 28 -11 33 -1 6 -8 21 -16 35 -17 32 -102
264 -144 395 -18 55 -40 125 -50 155 -10 30 -33 105 -49 165 -17 61 -37 133
-45 160 -8 28 -26 100 -40 160 -15 61 -31 126 -36 145 -5 19 -12 51 -15 70 -3
19 -8 42 -10 50 -2 8 -7 29 -10 45 -2 17 -7 41 -10 55 -3 14 -8 41 -11 60 -3
19 -7 43 -10 53 -3 10 -7 30 -9 45 -2 15 -7 43 -10 62 -8 43 -11 63 -19 120
-4 25 -9 56 -11 70 -8 50 -17 116 -20 140 -1 14 -6 52 -10 85 -7 62 -8 68 -19
195 -4 41 -9 93 -11 115 -27 286 -27 1025 0 1310 2 22 7 72 10 110 7 86 16
161 30 275 1 14 6 50 10 80 3 30 9 69 11 85 3 17 7 42 10 58 2 15 6 39 8 55 3
15 7 43 10 62 3 19 8 46 11 60 3 14 9 51 15 82 12 70 17 95 25 128 3 14 7 36
10 50 3 14 7 35 10 48 3 12 7 32 10 45 3 12 7 31 10 42 3 11 9 40 14 65 6 25
20 81 31 125 12 44 23 89 26 101 2 11 18 68 35 125 17 57 32 109 33 114 5 21
68 222 87 275 11 30 22 60 23 65 2 6 6 19 10 30 5 11 15 38 23 60 8 22 16 47
18 55 4 16 128 331 145 365 5 11 29 65 54 120 62 140 104 233 130 285 82 162
172 336 177 340 3 3 22 34 41 70 47 87 98 176 131 227 15 24 27 45 27 48 0 3
5 11 10 18 6 7 25 35 42 62 120 189 227 345 382 553 320 431 745 891 1161
1257 50 43 92 83 93 87 2 4 10 8 17 8 7 0 15 4 17 8 13 33 467 379 713 543
148 99 202 134 343 220 214 131 605 339 782 417 25 11 92 41 150 67 115 52
386 164 410 170 8 2 29 9 45 15 49 20 249 91 267 95 9 2 26 9 37 15 12 6 21 9
21 6 0 -2 26 5 58 16 31 11 64 22 72 23 8 2 47 13 85 25 111 33 319 89 438
116 9 2 25 6 35 8 57 14 111 26 141 31 19 3 37 7 40 9 5 4 38 10 111 21 14 3
36 7 50 10 14 3 43 8 65 11 22 4 42 8 44 10 2 2 14 4 25 4 18 0 18 -2 -6 -14z
m9399 -6188 c-3 -8 -6 -5 -6 6 -1 11 2 17 5 13 3 -3 4 -12 1 -19z"/>
</g>
</svg>
